<svg width="261" height="156" fill="none" xmlns="http://www.w3.org/2000/svg"><path d="M0 8a8 8 0 0 1 8-8h253v156H0V8z" fill="#000929"/><mask id="a" style="mask-type:alpha" maskUnits="userSpaceOnUse" x="0" y="0" width="261" height="156"><path fill="#013B42" d="M0 0h261v156H0z"/></mask><g mask="url(#a)"><mask id="b" style="mask-type:alpha" maskUnits="userSpaceOnUse" x="0" y="-24" width="261" height="205"><path d="M0-24h261v205H0V-24z" fill="#013B42"/></mask><g mask="url(#b)" stroke-opacity=".5"><path d="m375.088 428.418-4.083-14.424c-29.559-104.433-160.305-138.88-237.483-62.569l-11.092 10.967C49.887 434.12-73.041 401.25-100.105 302.889l-9.464-34.398c-19.581-71.168-103.252-102.088-164.407-60.756" stroke="url(#c)"/><path d="m377.665 418.807-4.082-14.424c-29.559-104.432-160.305-138.879-237.484-62.568l-11.091 10.967c-72.543 71.727-195.472 38.857-222.535-59.503l-9.464-34.399c-19.582-71.167-103.252-102.087-164.407-60.755" stroke="url(#d)"/><path d="m380.237 409.197-4.083-14.424c-29.559-104.433-160.305-138.88-237.483-62.569l-11.092 10.967c-72.543 71.728-195.471 38.858-222.535-59.503l-9.464-34.398c-19.581-71.168-103.252-102.088-164.407-60.756" stroke="url(#e)"/><path d="m382.812 399.586-4.082-14.424c-29.559-104.433-160.305-138.88-237.484-62.568l-11.091 10.967C57.612 405.288-65.317 372.418-92.38 274.058l-9.465-34.399c-19.581-71.168-103.251-102.088-164.406-60.755" stroke="url(#f)"/><path d="m385.39 389.976-4.083-14.424c-29.558-104.433-160.305-138.88-237.483-62.569l-11.092 10.967C60.19 395.678-62.739 362.808-89.802 264.447l-9.465-34.398c-19.581-71.168-103.251-102.088-164.406-60.756" stroke="url(#g)"/><path d="m387.961 380.366-4.082-14.425c-29.559-104.432-160.305-138.879-237.484-62.568l-11.091 10.967c-72.543 71.727-195.472 38.858-222.535-59.503l-9.465-34.398c-19.581-71.168-103.251-102.088-164.406-60.756" stroke="url(#h)"/><path d="m390.539 370.753-4.083-14.424c-29.558-104.433-160.305-138.88-237.483-62.569l-11.092 10.967C65.339 376.454-57.59 343.585-84.653 245.224l-9.465-34.398c-19.581-71.168-103.251-102.088-164.407-60.756" stroke="url(#i)"/><path d="m393.114 361.142-4.083-14.424c-29.558-104.432-160.305-138.88-237.483-62.568l-11.092 10.967c-72.542 71.727-195.471 38.857-222.534-59.503l-9.465-34.399c-19.581-71.167-103.251-102.087-164.406-60.755" stroke="url(#j)"/><path d="m395.692 351.532-4.083-14.424c-29.559-104.433-160.305-138.88-237.483-62.569l-11.092 10.967c-72.542 71.728-195.471 38.858-222.535-59.503l-9.464-34.398c-19.581-71.168-103.252-102.088-164.407-60.756" stroke="url(#k)"/><path d="m398.203 342.15-4.083-14.424c-29.558-104.433-160.305-138.88-237.483-62.568l-11.092 10.966c-72.542 71.728-195.471 38.858-222.534-59.502l-9.465-34.399c-19.581-71.168-103.251-102.088-164.406-60.755" stroke="url(#l)"/><path d="m400.719 332.761-4.083-14.424c-29.559-104.433-160.305-138.88-237.483-62.569l-11.092 10.967c-72.543 71.727-195.472 38.858-222.535-59.503l-9.464-34.398c-19.582-71.168-103.252-102.088-164.407-60.756" stroke="url(#m)"/><path d="m403.23 323.379-4.083-14.424c-29.558-104.433-160.305-138.88-237.483-62.568l-11.092 10.966C78.03 329.081-44.899 296.211-71.963 197.851l-9.464-34.399c-19.581-71.168-103.252-102.088-164.407-60.755" stroke="url(#n)"/><path d="m405.745 313.998-4.082-14.424c-29.559-104.433-160.305-138.88-237.484-62.569l-11.091 10.967C80.545 319.7-42.384 286.83-69.447 188.469l-9.464-34.398C-98.493 82.903-182.163 51.983-243.318 93.315" stroke="url(#o)"/><path d="m408.263 304.614-4.083-14.424c-29.558-104.433-160.305-138.88-237.483-62.569l-11.092 10.967c-72.542 71.728-195.471 38.858-222.534-59.503l-9.465-34.398C-95.975 73.519-179.645 42.599-240.8 83.931" stroke="url(#p)"/><path d="m410.772 295.228-4.082-14.424c-29.559-104.432-160.305-138.88-237.484-62.568l-11.091 10.967C85.572 300.93-37.357 268.06-64.42 169.7l-9.465-34.399C-93.465 64.134-177.136 33.214-238.29 74.546" stroke="url(#q)"/><path d="m413.29 285.845-4.083-14.424c-29.558-104.433-160.305-138.88-237.483-62.569l-11.092 10.967C88.09 291.547-34.839 258.677-61.903 160.316l-9.464-34.398C-90.948 54.75-174.618 23.83-235.774 65.162" stroke="url(#r)"/><path d="m415.805 276.461-4.082-14.424c-29.559-104.433-160.305-138.88-237.484-62.568l-11.091 10.967c-72.543 71.727-195.472 38.857-222.535-59.503l-9.464-34.399C-88.433 45.366-172.103 14.446-233.258 55.779" stroke="url(#s)"/><path d="m418.317 267.08-4.083-14.424c-29.559-104.433-160.305-138.88-237.483-62.569l-11.092 10.967c-72.542 71.728-195.471 38.858-222.535-59.503l-9.464-34.398C-85.921 35.985-169.592 5.065-230.747 46.397" stroke="url(#t)"/><path d="m420.835 257.699-4.083-14.424c-29.559-104.433-160.305-138.88-237.483-62.569l-11.092 10.967C95.635 263.4-27.294 230.531-54.358 132.17l-9.464-34.398C-83.403 26.604-167.074-4.316-228.23 37.016" stroke="url(#u)"/><path d="m423.344 248.311-4.083-14.424c-29.559-104.433-160.305-138.88-237.483-62.569l-11.092 10.967c-72.543 71.728-195.472 38.858-222.535-59.503l-9.464-34.398C-80.895 17.216-164.565-13.704-225.72 27.628" stroke="url(#v)"/><path d="m425.859 238.927-4.082-14.424c-29.559-104.433-160.305-138.88-237.484-62.569l-11.091 10.967c-72.543 71.728-195.472 38.858-222.535-59.503L-58.798 79C-78.378 7.832-162.049-23.088-223.204 18.245" stroke="url(#w)"/><path d="m428.377 229.546-4.083-14.424c-29.559-104.433-160.305-138.88-237.483-62.569l-11.092 10.967c-72.542 71.727-195.471 38.858-222.535-59.503l-9.464-34.398C-75.861-1.55-159.532-32.47-220.687 8.863" stroke="url(#x)"/><path d="m430.888 220.164-4.083-14.424C397.247 101.308 266.5 66.86 189.322 143.172l-11.092 10.967c-72.542 71.727-195.471 38.857-222.534-59.503l-9.465-34.399C-73.35-10.93-157.02-41.85-218.175-.518" stroke="url(#y)"/></g></g><defs><linearGradient id="n" x1="21.515" y1="426.45" x2="129.868" y2="22.068" gradientUnits="userSpaceOnUse"><stop stop-color="#fff"/><stop offset="1" stop-color="#fff" stop-opacity="0"/></linearGradient><linearGradient id="c" x1="-6.628" y1="531.488" x2="101.726" y2="127.106" gradientUnits="userSpaceOnUse"><stop stop-color="#fff"/><stop offset="1" stop-color="#fff" stop-opacity="0"/></linearGradient><linearGradient id="e" x1="-1.479" y1="512.268" x2="106.875" y2="107.886" gradientUnits="userSpaceOnUse"><stop stop-color="#fff"/><stop offset="1" stop-color="#fff" stop-opacity="0"/></linearGradient><linearGradient id="f" x1="1.097" y1="502.657" x2="109.451" y2="98.275" gradientUnits="userSpaceOnUse"><stop stop-color="#fff"/><stop offset="1" stop-color="#fff" stop-opacity="0"/></linearGradient><linearGradient id="g" x1="3.675" y1="493.046" x2="112.029" y2="88.664" gradientUnits="userSpaceOnUse"><stop stop-color="#fff"/><stop offset="1" stop-color="#fff" stop-opacity="0"/></linearGradient><linearGradient id="h" x1="6.246" y1="483.436" x2="114.6" y2="79.054" gradientUnits="userSpaceOnUse"><stop stop-color="#fff"/><stop offset="1" stop-color="#fff" stop-opacity="0"/></linearGradient><linearGradient id="i" x1="8.824" y1="473.823" x2="117.177" y2="69.441" gradientUnits="userSpaceOnUse"><stop stop-color="#fff"/><stop offset="1" stop-color="#fff" stop-opacity="0"/></linearGradient><linearGradient id="j" x1="11.399" y1="464.213" x2="119.753" y2="59.831" gradientUnits="userSpaceOnUse"><stop stop-color="#fff"/><stop offset="1" stop-color="#fff" stop-opacity="0"/></linearGradient><linearGradient id="k" x1="13.976" y1="454.603" x2="122.33" y2="50.221" gradientUnits="userSpaceOnUse"><stop stop-color="#fff"/><stop offset="1" stop-color="#fff" stop-opacity="0"/></linearGradient><linearGradient id="l" x1="16.488" y1="445.221" x2="124.842" y2="40.839" gradientUnits="userSpaceOnUse"><stop stop-color="#fff"/><stop offset="1" stop-color="#fff" stop-opacity="0"/></linearGradient><linearGradient id="m" x1="19.003" y1="435.831" x2="127.357" y2="31.449" gradientUnits="userSpaceOnUse"><stop stop-color="#fff"/><stop offset="1" stop-color="#fff" stop-opacity="0"/></linearGradient><linearGradient id="d" x1="-4.05" y1="521.878" x2="104.304" y2="117.496" gradientUnits="userSpaceOnUse"><stop stop-color="#fff"/><stop offset="1" stop-color="#fff" stop-opacity="0"/></linearGradient><linearGradient id="o" x1="24.03" y1="417.068" x2="132.384" y2="12.686" gradientUnits="userSpaceOnUse"><stop stop-color="#fff"/><stop offset="1" stop-color="#fff" stop-opacity="0"/></linearGradient><linearGradient id="p" x1="26.548" y1="407.685" x2="134.902" y2="3.303" gradientUnits="userSpaceOnUse"><stop stop-color="#fff"/><stop offset="1" stop-color="#fff" stop-opacity="0"/></linearGradient><linearGradient id="q" x1="29.057" y1="398.299" x2="137.411" y2="-6.083" gradientUnits="userSpaceOnUse"><stop stop-color="#fff"/><stop offset="1" stop-color="#fff" stop-opacity="0"/></linearGradient><linearGradient id="r" x1="31.575" y1="388.916" x2="139.928" y2="-15.466" gradientUnits="userSpaceOnUse"><stop stop-color="#fff"/><stop offset="1" stop-color="#fff" stop-opacity="0"/></linearGradient><linearGradient id="s" x1="34.09" y1="379.532" x2="142.444" y2="-24.85" gradientUnits="userSpaceOnUse"><stop stop-color="#fff"/><stop offset="1" stop-color="#fff" stop-opacity="0"/></linearGradient><linearGradient id="t" x1="36.602" y1="370.15" x2="144.955" y2="-34.232" gradientUnits="userSpaceOnUse"><stop stop-color="#fff"/><stop offset="1" stop-color="#fff" stop-opacity="0"/></linearGradient><linearGradient id="u" x1="39.12" y1="360.769" x2="147.473" y2="-43.613" gradientUnits="userSpaceOnUse"><stop stop-color="#fff"/><stop offset="1" stop-color="#fff" stop-opacity="0"/></linearGradient><linearGradient id="v" x1="41.628" y1="351.381" x2="149.982" y2="-53.001" gradientUnits="userSpaceOnUse"><stop stop-color="#fff"/><stop offset="1" stop-color="#fff" stop-opacity="0"/></linearGradient><linearGradient id="w" x1="44.144" y1="341.998" x2="152.498" y2="-62.384" gradientUnits="userSpaceOnUse"><stop stop-color="#fff"/><stop offset="1" stop-color="#fff" stop-opacity="0"/></linearGradient><linearGradient id="x" x1="46.662" y1="332.616" x2="155.015" y2="-71.766" gradientUnits="userSpaceOnUse"><stop stop-color="#fff"/><stop offset="1" stop-color="#fff" stop-opacity="0"/></linearGradient><linearGradient id="y" x1="49.173" y1="323.235" x2="157.527" y2="-81.147" gradientUnits="userSpaceOnUse"><stop stop-color="#fff"/><stop offset="1" stop-color="#fff" stop-opacity="0"/></linearGradient></defs></svg>