<svg width="64" height="64" fill="none" xmlns="http://www.w3.org/2000/svg"><circle cx="32" cy="32" r="31.5" fill="#fff" stroke="#E0DEF7"/><circle cx="32" cy="32" r="28" fill="#E0DEF7"/><path d="M22.667 26.667c-2.214 0-4 1.786-4 4v10.666c0 2.214 1.786 4 4 4h2c1.466 0 2.666-1.2 2.666-2.666V29.333c0-1.466-1.2-2.666-2.666-2.666h-2zm1.333 12c0 .546-.453 1-1 1-.547 0-1-.454-1-1v-5.334c0-.546.453-1 1-1 .547 0 1 .454 1 1v5.334zM41.333 18.667h-8c-2.213 0-4 1.786-4 4v18.666c0 2.214 1.787 4 4 4H34a.66.66 0 0 0 .667-.666V40c0-.733.6-1.333 1.333-1.333h2.667c.733 0 1.333.6 1.333 1.333v4.667a.66.66 0 0 0 .667.666h.666c2.214 0 4-1.786 4-4V22.667c0-2.214-1.786-4-4-4zm-5.666 14.666c0 .547-.454 1-1 1-.547 0-1-.453-1-1v-6.666c0-.547.453-1 1-1 .546 0 1 .453 1 1v6.666zm5.333 0c0 .547-.453 1-1 1-.547 0-1-.453-1-1v-6.666c0-.547.453-1 1-1 .547 0 1 .453 1 1v6.666z" fill="#fff"/><path d="M40 48a8 8 0 0 1 8-8h8a8 8 0 0 1 8 8v8a8 8 0 0 1-8 8h-8a8 8 0 0 1-8-8v-8z" fill="#7065F0"/><path d="M51.667 58a6.333 6.333 0 1 0 0-12.667 6.333 6.333 0 0 0 0 12.667zM58.667 58.667l-1.334-1.334" stroke="#fff" stroke-width="2" stroke-linecap="round" stroke-linejoin="round"/></svg>