<svg width="64" height="64" fill="none" xmlns="http://www.w3.org/2000/svg"><circle cx="32" cy="32" r="31.5" fill="#fff" stroke="#E0DEF7"/><circle cx="32" cy="32" r="28" fill="#E0DEF7"/><path d="M39.373 26.36a.98.98 0 0 0-.28 0 3.832 3.832 0 0 1-3.706-3.84c0-2.12 1.72-3.853 3.853-3.853 2.12 0 3.853 1.72 3.853 3.853a3.852 3.852 0 0 1-3.72 3.84zM43.72 35.6c-1.493 1-3.587 1.373-5.52 1.12a8.708 8.708 0 0 0 .787-3.587c0-1.333-.294-2.6-.854-3.706 1.974-.267 4.067.106 5.574 1.106 2.106 1.387 2.106 3.667.013 5.067zM24.587 26.36a.98.98 0 0 1 .28 0 3.832 3.832 0 0 0 3.706-3.84 3.847 3.847 0 0 0-3.853-3.853c-2.12 0-3.84 1.72-3.84 3.853 0 2.08 1.64 3.773 3.707 3.84zM24.733 33.133c0 1.294.28 2.52.787 3.627-1.88.2-3.84-.2-5.28-1.147-2.107-1.4-2.107-3.68 0-5.08 1.427-.96 3.44-1.346 5.333-1.133a8.477 8.477 0 0 0-.84 3.733zM32.16 37.16a1.51 1.51 0 0 0-.347 0 4.567 4.567 0 0 1-4.413-4.573A4.598 4.598 0 0 1 32 28a4.586 4.586 0 0 1 4.587 4.587 4.578 4.578 0 0 1-4.427 4.573zM27.827 39.92c-2.014 1.347-2.014 3.56 0 4.893 2.293 1.534 6.053 1.534 8.346 0 2.014-1.346 2.014-3.56 0-4.893-2.28-1.533-6.04-1.533-8.346 0z" fill="#fff"/><path d="M40 48a8 8 0 0 1 8-8h8a8 8 0 0 1 8 8v8a8 8 0 0 1-8 8h-8a8 8 0 0 1-8-8v-8z" fill="#7065F0"/><path d="M57.193 53.953a5.05 5.05 0 0 1-5.066 1.247l-3.14 3.133c-.227.234-.674.374-.994.327l-1.453-.2c-.48-.067-.927-.52-1-1l-.2-1.453c-.047-.32.107-.767.327-.994L48.8 51.88a5.046 5.046 0 0 1 8.387-5.067 5.052 5.052 0 0 1 .006 7.14z" fill="#fff"/><path d="m48.593 55.66 1.534 1.533" stroke="#7065F0" stroke-width="2" stroke-miterlimit="10" stroke-linecap="round" stroke-linejoin="round"/><path d="M53.667 51.333a1 1 0 1 0 0-2 1 1 0 0 0 0 2z" fill="#7065F0" stroke="#7065F0" stroke-width="2" stroke-linecap="round" stroke-linejoin="round"/></svg>