<svg width="116" height="20" viewBox="0 0 116 20" fill="none" xmlns="http://www.w3.org/2000/svg">
<path d="M14.9321 11.9335C14.7163 12.1427 14.6171 12.4452 14.6663 12.7418L15.4071 16.8418C15.4696 17.1893 15.3229 17.541 15.0321 17.7418C14.7471 17.9502 14.3679 17.9752 14.0571 17.8085L10.3663 15.8835C10.2379 15.8152 10.0954 15.7785 9.94961 15.7743H9.72378C9.64544 15.786 9.56878 15.811 9.49878 15.8493L5.80711 17.7835C5.62461 17.8752 5.41794 17.9077 5.21544 17.8752C4.72211 17.7818 4.39294 17.3118 4.47378 16.816L5.21544 12.716C5.26461 12.4168 5.16544 12.1127 4.94961 11.9002L1.94045 8.9835C1.68878 8.73933 1.60128 8.37266 1.71628 8.04183C1.82795 7.71183 2.11294 7.471 2.45711 7.41683L6.59878 6.816C6.91378 6.7835 7.19044 6.59183 7.33211 6.3085L9.15711 2.56683C9.20044 2.4835 9.25628 2.40683 9.32378 2.34183L9.39878 2.2835C9.43794 2.24016 9.48294 2.20433 9.53294 2.17516L9.62378 2.14183L9.76544 2.0835H10.1163C10.4296 2.116 10.7054 2.3035 10.8496 2.5835L12.6988 6.3085C12.8321 6.581 13.0913 6.77016 13.3904 6.816L17.5321 7.41683C17.8821 7.46683 18.1746 7.7085 18.2904 8.04183C18.3996 8.376 18.3054 8.74266 18.0488 8.9835L14.9321 11.9335Z" fill="#FFB154"/>
<path d="M38.9321 11.9335C38.7163 12.1427 38.6171 12.4452 38.6663 12.7418L39.4071 16.8418C39.4696 17.1893 39.3229 17.541 39.0321 17.7418C38.7471 17.9502 38.3679 17.9752 38.0571 17.8085L34.3663 15.8835C34.2379 15.8152 34.0954 15.7785 33.9496 15.7743H33.7238C33.6454 15.786 33.5688 15.811 33.4988 15.8493L29.8071 17.7835C29.6246 17.8752 29.4179 17.9077 29.2154 17.8752C28.7221 17.7818 28.3929 17.3118 28.4738 16.816L29.2154 12.716C29.2646 12.4168 29.1654 12.1127 28.9496 11.9002L25.9404 8.9835C25.6888 8.73933 25.6013 8.37266 25.7163 8.04183C25.8279 7.71183 26.1129 7.471 26.4571 7.41683L30.5988 6.816C30.9138 6.7835 31.1904 6.59183 31.3321 6.3085L33.1571 2.56683C33.2004 2.4835 33.2563 2.40683 33.3238 2.34183L33.3988 2.2835C33.4379 2.24016 33.4829 2.20433 33.5329 2.17516L33.6238 2.14183L33.7654 2.0835H34.1163C34.4296 2.116 34.7054 2.3035 34.8496 2.5835L36.6988 6.3085C36.8321 6.581 37.0913 6.77016 37.3904 6.816L41.5321 7.41683C41.8821 7.46683 42.1746 7.7085 42.2904 8.04183C42.3996 8.376 42.3054 8.74266 42.0488 8.9835L38.9321 11.9335Z" fill="#FFB154"/>
<path d="M62.9321 11.9335C62.7163 12.1427 62.6171 12.4452 62.6663 12.7418L63.4071 16.8418C63.4696 17.1893 63.3229 17.541 63.0321 17.7418C62.7471 17.9502 62.3679 17.9752 62.0571 17.8085L58.3663 15.8835C58.2379 15.8152 58.0954 15.7785 57.9496 15.7743H57.7238C57.6454 15.786 57.5688 15.811 57.4988 15.8493L53.8071 17.7835C53.6246 17.8752 53.4179 17.9077 53.2154 17.8752C52.7221 17.7818 52.3929 17.3118 52.4738 16.816L53.2154 12.716C53.2646 12.4168 53.1654 12.1127 52.9496 11.9002L49.9404 8.9835C49.6888 8.73933 49.6013 8.37266 49.7163 8.04183C49.8279 7.71183 50.1129 7.471 50.4571 7.41683L54.5988 6.816C54.9138 6.7835 55.1904 6.59183 55.3321 6.3085L57.1571 2.56683C57.2004 2.4835 57.2563 2.40683 57.3238 2.34183L57.3988 2.2835C57.4379 2.24016 57.4829 2.20433 57.5329 2.17516L57.6238 2.14183L57.7654 2.0835H58.1163C58.4296 2.116 58.7054 2.3035 58.8496 2.5835L60.6988 6.3085C60.8321 6.581 61.0913 6.77016 61.3904 6.816L65.5321 7.41683C65.8821 7.46683 66.1746 7.7085 66.2904 8.04183C66.3996 8.376 66.3054 8.74266 66.0488 8.9835L62.9321 11.9335Z" fill="#FFB154"/>
<path d="M86.9321 11.9335C86.7163 12.1427 86.6171 12.4452 86.6663 12.7418L87.4071 16.8418C87.4696 17.1893 87.3229 17.541 87.0321 17.7418C86.7471 17.9502 86.3679 17.9752 86.0571 17.8085L82.3663 15.8835C82.2379 15.8152 82.0954 15.7785 81.9496 15.7743H81.7238C81.6454 15.786 81.5688 15.811 81.4988 15.8493L77.8071 17.7835C77.6246 17.8752 77.4179 17.9077 77.2154 17.8752C76.7221 17.7818 76.3929 17.3118 76.4738 16.816L77.2154 12.716C77.2646 12.4168 77.1654 12.1127 76.9496 11.9002L73.9404 8.9835C73.6888 8.73933 73.6013 8.37266 73.7163 8.04183C73.8279 7.71183 74.1129 7.471 74.4571 7.41683L78.5988 6.816C78.9138 6.7835 79.1904 6.59183 79.3321 6.3085L81.1571 2.56683C81.2004 2.4835 81.2563 2.40683 81.3238 2.34183L81.3988 2.2835C81.4379 2.24016 81.4829 2.20433 81.5329 2.17516L81.6238 2.14183L81.7654 2.0835H82.1163C82.4296 2.116 82.7054 2.3035 82.8496 2.5835L84.6988 6.3085C84.8321 6.581 85.0913 6.77016 85.3904 6.816L89.5321 7.41683C89.8821 7.46683 90.1746 7.7085 90.2904 8.04183C90.3996 8.376 90.3054 8.74266 90.0488 8.9835L86.9321 11.9335Z" fill="#FFB154"/>
<path d="M110.932 11.9335C110.716 12.1427 110.617 12.4452 110.666 12.7418L111.407 16.8418C111.47 17.1893 111.323 17.541 111.032 17.7418C110.747 17.9502 110.368 17.9752 110.057 17.8085L106.366 15.8835C106.238 15.8152 106.095 15.7785 105.95 15.7743H105.724C105.645 15.786 105.569 15.811 105.499 15.8493L101.807 17.7835C101.625 17.8752 101.418 17.9077 101.215 17.8752C100.722 17.7818 100.393 17.3118 100.474 16.816L101.215 12.716C101.265 12.4168 101.165 12.1127 100.95 11.9002L97.9404 8.9835C97.6888 8.73933 97.6013 8.37266 97.7163 8.04183C97.8279 7.71183 98.1129 7.471 98.4571 7.41683L102.599 6.816C102.914 6.7835 103.19 6.59183 103.332 6.3085L105.157 2.56683C105.2 2.4835 105.256 2.40683 105.324 2.34183L105.399 2.2835C105.438 2.24016 105.483 2.20433 105.533 2.17516L105.624 2.14183L105.765 2.0835H106.116C106.43 2.116 106.705 2.3035 106.85 2.5835L108.699 6.3085C108.832 6.581 109.091 6.77016 109.39 6.816L113.532 7.41683C113.882 7.46683 114.175 7.7085 114.29 8.04183C114.4 8.376 114.305 8.74266 114.049 8.9835L110.932 11.9335Z" fill="#FFB154"/>
</svg>
