<svg width="20" height="20" fill="none" xmlns="http://www.w3.org/2000/svg"><path d="M14.932 11.934a.917.917 0 0 0-.266.808l.741 4.1a.9.9 0 0 1-.375.9.917.917 0 0 1-.975.066l-3.69-1.925a.944.944 0 0 0-.417-.109h-.226a.678.678 0 0 0-.225.075l-3.692 1.934a.973.973 0 0 1-.592.092.926.926 0 0 1-.741-1.059l.741-4.1a.932.932 0 0 0-.265-.816L1.94 8.983a.9.9 0 0 1-.224-.941.936.936 0 0 1 .741-.625L6.6 6.816a.927.927 0 0 0 .733-.507l1.825-3.742c.043-.084.1-.16.167-.225l.075-.058a.56.56 0 0 1 .134-.109l.09-.033.142-.058h.351c.314.032.59.22.734.5l1.849 3.725a.926.926 0 0 0 .691.507l4.142.6c.35.05.643.292.758.626.11.334.015.7-.241.941l-3.117 2.95z" fill="#FFB154"/></svg>