<svg width="84" height="20" fill="none" xmlns="http://www.w3.org/2000/svg"><g clip-path="url(#a)"><path d="M21.82 7.087h8.385v1.535h-3.301v8.649h-1.81V8.62h-3.287l.014-1.534zm8.026 2.811h1.547v1.426h.027c.056-.204.152-.394.29-.584.139-.19.304-.367.512-.516.193-.163.414-.285.663-.38.234-.095.483-.15.732-.15.193 0 .331.014.4.014.07.013.152.027.221.027v1.562c-.11-.028-.235-.041-.359-.055-.124-.013-.235-.027-.359-.027-.276 0-.539.054-.787.163a1.992 1.992 0 0 0-.65.475c-.18.217-.331.475-.441.788-.111.312-.166.679-.166 1.086v3.503h-1.658l.028-7.332zm11.989 7.373h-1.63v-1.032h-.027c-.208.38-.512.665-.912.896-.4.23-.815.34-1.23.34-.98 0-1.698-.232-2.14-.72-.442-.476-.663-1.209-.663-2.173V9.898h1.657v4.521c0 .652.124 1.114.387 1.372.248.271.608.407 1.063.407.346 0 .636-.054.87-.163.235-.108.429-.244.567-.42.152-.177.249-.395.318-.639s.096-.516.096-.801V9.898h1.658v7.373h-.014zm2.818-2.363c.055.475.235.801.552 1.005.318.19.705.285 1.147.285.152 0 .331-.014.525-.04.193-.028.386-.069.552-.137a.97.97 0 0 0 .428-.298.687.687 0 0 0 .152-.503.725.725 0 0 0-.235-.516 1.963 1.963 0 0 0-.552-.325 4.865 4.865 0 0 0-.774-.204c-.29-.054-.58-.122-.884-.19a9.69 9.69 0 0 1-.898-.244 2.59 2.59 0 0 1-.773-.394 1.701 1.701 0 0 1-.539-.625c-.138-.258-.207-.556-.207-.937 0-.407.097-.733.304-1.005.193-.271.456-.488.76-.651.303-.163.649-.285 1.022-.353a5.95 5.95 0 0 1 1.063-.095c.387 0 .76.04 1.105.122.346.081.677.204.953.394.29.176.525.42.705.706.193.285.304.638.359 1.045H47.69c-.083-.393-.262-.652-.538-.787a2.257 2.257 0 0 0-.981-.204c-.11 0-.262.014-.414.027a2.482 2.482 0 0 0-.456.109 1.083 1.083 0 0 0-.36.23.538.538 0 0 0-.151.394c0 .204.069.353.207.476.138.122.318.217.553.312.22.081.483.15.773.204.29.054.594.122.898.19.304.068.594.149.884.244.29.095.552.217.773.394.221.163.415.366.553.61.138.245.207.557.207.91 0 .435-.097.802-.304 1.114-.207.299-.47.557-.787.747-.318.19-.69.326-1.078.42a5.88 5.88 0 0 1-1.174.136c-.47 0-.911-.054-1.312-.163-.4-.108-.76-.271-1.05-.475a2.29 2.29 0 0 1-.69-.8c-.166-.313-.263-.693-.276-1.141h1.67v.013h.015zm5.456-5.01h1.256V7.671h1.658v2.213h1.492v1.209h-1.492v3.937c0 .177.014.313.027.448.014.123.056.231.097.313.056.081.138.15.235.19.11.04.249.068.442.068.11 0 .235 0 .345-.014.11-.014.235-.027.346-.054v1.263c-.18.027-.36.04-.539.054-.18.027-.345.027-.539.027-.442 0-.787-.04-1.05-.122a1.515 1.515 0 0 1-.621-.353 1.255 1.255 0 0 1-.304-.584 4.57 4.57 0 0 1-.097-.815v-4.345h-1.257V9.871v.027zm5.566 0h1.56v1.005h.028c.235-.435.553-.734.967-.924.415-.19.857-.285 1.354-.285.594 0 1.105.095 1.547.313.442.203.8.475 1.09.841.291.353.512.774.65 1.25.138.475.221.99.221 1.52 0 .503-.069.978-.193 1.44a3.965 3.965 0 0 1-.594 1.235 2.924 2.924 0 0 1-1.008.855c-.415.218-.884.326-1.437.326-.235 0-.483-.027-.718-.067a3.097 3.097 0 0 1-.69-.204 2.484 2.484 0 0 1-.609-.367 2.08 2.08 0 0 1-.47-.516h-.027V20H55.69V9.898h-.014zm5.787 3.693c0-.326-.041-.652-.138-.964a2.442 2.442 0 0 0-.4-.828c-.18-.244-.401-.435-.65-.584a1.792 1.792 0 0 0-.897-.217c-.691 0-1.216.23-1.575.706-.345.475-.525 1.113-.525 1.9 0 .38.041.72.138 1.033.097.312.221.583.415.814.18.231.4.408.663.543.262.136.552.204.897.204.387 0 .691-.081.953-.23.263-.15.47-.354.65-.585.165-.244.29-.516.359-.828.069-.326.11-.638.11-.964zm2.915-6.504h1.657v1.535h-1.657V7.087zm0 2.811h1.657v7.373h-1.657V9.898zm3.135-2.81h1.657V17.27h-1.657V7.087zm6.713 10.386c-.594 0-1.133-.095-1.602-.298a3.64 3.64 0 0 1-1.188-.801 3.475 3.475 0 0 1-.732-1.236 4.751 4.751 0 0 1-.263-1.561c0-.557.083-1.073.263-1.548.165-.475.414-.883.732-1.236.317-.34.718-.61 1.188-.801a4.256 4.256 0 0 1 1.602-.299c.594 0 1.132.095 1.602.299.47.19.856.462 1.188.801.318.34.566.76.732 1.236.166.475.262.99.262 1.548 0 .57-.082 1.086-.262 1.561-.18.475-.414.883-.732 1.236-.318.339-.718.61-1.188.8-.47.19-.995.3-1.602.3zm0-1.29c.359 0 .69-.081.953-.23.276-.15.483-.353.663-.598.18-.244.304-.53.387-.828a3.664 3.664 0 0 0 0-1.887 2.415 2.415 0 0 0-.387-.829c-.18-.244-.4-.434-.663-.583a1.974 1.974 0 0 0-.953-.231c-.36 0-.69.081-.953.23-.276.15-.484.354-.663.584-.18.245-.304.516-.387.829a3.638 3.638 0 0 0 0 1.887c.083.312.207.584.387.828.18.245.4.448.663.598.276.163.594.23.953.23zm4.282-6.286h1.256V7.671h1.658v2.213h1.492v1.209H81.42v3.937c0 .177.014.313.028.448a.93.93 0 0 0 .096.313c.056.081.138.15.235.19.11.04.249.068.442.068.11 0 .235 0 .345-.014.11-.014.235-.027.346-.054v1.263c-.18.027-.36.04-.539.054-.18.027-.345.027-.539.027-.442 0-.787-.04-1.05-.122a1.515 1.515 0 0 1-.62-.353 1.255 1.255 0 0 1-.305-.584 4.561 4.561 0 0 1-.097-.815v-4.345h-1.256V9.871v.027z" fill="#fff"/><path d="M19.887 7.088h-7.583L9.97 0 7.622 7.088.039 7.074 6.17 11.46l-2.348 7.087 6.133-4.385 6.132 4.385-2.334-7.087 6.133-4.372z" fill="#00B67A"/><path d="m14.28 13.062-.525-1.602L9.97 14.16l4.31-1.1z" fill="#005128"/></g><defs><clipPath id="a"><path fill="#fff" transform="scale(1 -1)" d="M0 0h83.75v-20H0z"/></clipPath></defs></svg>