<svg width="16" height="16" viewBox="0 0 16 16" fill="none" xmlns="http://www.w3.org/2000/svg">
<path fill-rule="evenodd" clip-rule="evenodd" d="M3.99998 1.59998C4.21215 1.59998 4.41563 1.68426 4.56566 1.83429C4.71569 1.98432 4.79998 2.1878 4.79998 2.39998V3.19998H5.59998C5.81215 3.19998 6.01563 3.28426 6.16566 3.43429C6.31569 3.58432 6.39998 3.7878 6.39998 3.99998C6.39998 4.21215 6.31569 4.41563 6.16566 4.56566C6.01563 4.71569 5.81215 4.79998 5.59998 4.79998H4.79998V5.59998C4.79998 5.81215 4.71569 6.01563 4.56566 6.16566C4.41563 6.31569 4.21215 6.39998 3.99998 6.39998C3.7878 6.39998 3.58432 6.31569 3.43429 6.16566C3.28426 6.01563 3.19998 5.81215 3.19998 5.59998V4.79998H2.39998C2.1878 4.79998 1.98432 4.71569 1.83429 4.56566C1.68426 4.41563 1.59998 4.21215 1.59998 3.99998C1.59998 3.7878 1.68426 3.58432 1.83429 3.43429C1.98432 3.28426 2.1878 3.19998 2.39998 3.19998H3.19998V2.39998C3.19998 2.1878 3.28426 1.98432 3.43429 1.83429C3.58432 1.68426 3.7878 1.59998 3.99998 1.59998ZM3.99998 9.59998C4.21215 9.59998 4.41563 9.68426 4.56566 9.83429C4.71569 9.98432 4.79998 10.1878 4.79998 10.4V11.2H5.59998C5.81215 11.2 6.01563 11.2843 6.16566 11.4343C6.31569 11.5843 6.39998 11.7878 6.39998 12C6.39998 12.2121 6.31569 12.4156 6.16566 12.5657C6.01563 12.7157 5.81215 12.8 5.59998 12.8H4.79998V13.6C4.79998 13.8121 4.71569 14.0156 4.56566 14.1657C4.41563 14.3157 4.21215 14.4 3.99998 14.4C3.7878 14.4 3.58432 14.3157 3.43429 14.1657C3.28426 14.0156 3.19998 13.8121 3.19998 13.6V12.8H2.39998C2.1878 12.8 1.98432 12.7157 1.83429 12.5657C1.68426 12.4156 1.59998 12.2121 1.59998 12C1.59998 11.7878 1.68426 11.5843 1.83429 11.4343C1.98432 11.2843 2.1878 11.2 2.39998 11.2H3.19998V10.4C3.19998 10.1878 3.28426 9.98432 3.43429 9.83429C3.58432 9.68426 3.7878 9.59998 3.99998 9.59998ZM9.59998 1.59998C9.77653 1.59992 9.94814 1.65827 10.0881 1.76593C10.228 1.87358 10.3284 2.02451 10.3736 2.19518L11.3168 5.75997L14 7.30718C14.1216 7.37739 14.2226 7.47838 14.2928 7.59999C14.363 7.7216 14.3999 7.85955 14.3999 7.99998C14.3999 8.1404 14.363 8.27835 14.2928 8.39996C14.2226 8.52157 14.1216 8.62256 14 8.69278L11.3168 10.2408L10.3728 13.8048C10.3275 13.9753 10.2271 14.126 10.0873 14.2336C9.94745 14.3411 9.77599 14.3994 9.59958 14.3994C9.42316 14.3994 9.2517 14.3411 9.11186 14.2336C8.97202 14.126 8.87165 13.9753 8.82638 13.8048L7.88318 10.24L5.19998 8.69278C5.07837 8.62256 4.97739 8.52157 4.90718 8.39996C4.83697 8.27835 4.80001 8.1404 4.80001 7.99998C4.80001 7.85955 4.83697 7.7216 4.90718 7.59999C4.97739 7.47838 5.07837 7.37739 5.19998 7.30718L7.88318 5.75918L8.82718 2.19518C8.87234 2.02464 8.9726 1.87381 9.11237 1.76617C9.25213 1.65852 9.42356 1.6001 9.59998 1.59998Z" fill="white"/>
</svg>
